<?xml version="1.0" standalone="no"?>
<!DOCTYPE svg PUBLIC "-//W3C//DTD SVG 20010904//EN"
 "http://www.w3.org/TR/2001/REC-SVG-20010904/DTD/svg10.dtd">
<svg version="1.0" xmlns="http://www.w3.org/2000/svg"
 width="540.000000pt" height="1024.000000pt" viewBox="0 0 540.000000 1024.000000"
 preserveAspectRatio="xMidYMid meet">

<g transform="translate(0.000000,1024.000000) scale(0.100000,-0.100000)"
fill="#000000" stroke="none">
<path d="M2580 9993 c-25 -78 -90 -203 -124 -236 -19 -19 -41 -48 -50 -65 -14
-28 -14 -32 3 -53 31 -40 51 -87 51 -119 0 -32 30 -70 54 -70 13 0 15 -64 16
-437 1 -803 2 -781 -22 -788 -10 -4 -26 -23 -36 -43 l-17 -37 -77 0 c-42 0
-80 -3 -83 -7 -4 -4 -9 -34 -12 -68 -9 -99 -25 -94 -173 46 -50 47 -95 82
-101 78 -7 -4 -10 -38 -9 -88 2 -44 2 -86 1 -93 0 -6 -29 -32 -64 -56 -67 -48
-203 -186 -269 -273 -27 -36 -42 -67 -45 -96 -4 -29 -15 -53 -34 -74 -31 -32
-119 -228 -119 -265 0 -17 5 -20 23 -17 12 3 60 13 107 23 47 9 110 25 140 35
30 10 89 23 130 30 133 21 255 51 273 67 11 11 17 31 17 62 0 81 11 122 35
133 19 8 30 4 70 -26 26 -20 62 -44 79 -53 62 -31 66 -39 66 -133 0 -66 -4
-91 -15 -100 -19 -16 -19 -59 -1 -85 14 -20 10 -20 -335 -17 l-349 3 -81 -37
c-68 -30 -90 -36 -131 -32 -57 6 -66 12 -50 38 16 26 4 31 -70 29 -49 -2 -75
-9 -115 -32 -29 -16 -54 -35 -54 -43 -1 -8 -3 -18 -4 -24 -1 -5 -3 -15 -4 -20
-1 -12 -61 -50 -76 -50 -5 1 3 12 19 26 24 21 28 31 23 59 -3 18 -13 45 -22
59 -16 25 -22 26 -100 26 l-84 0 -39 -102 c-108 -282 -134 -360 -123 -371 20
-20 12 -43 -42 -124 -37 -56 -71 -129 -117 -252 l-64 -174 39 -33 c38 -33 39
-35 21 -49 -10 -8 -38 -17 -61 -20 l-42 -7 -60 -161 c-34 -89 -59 -164 -57
-166 4 -4 777 575 831 623 36 31 42 46 17 46 -11 0 -4 14 22 46 28 34 38 54
37 80 -1 21 4 34 12 34 7 0 26 3 43 6 29 6 31 4 39 -36 l8 -42 115 84 115 85
100 8 c103 8 205 7 406 -1 l116 -6 5 -101 c4 -84 10 -111 32 -153 22 -45 26
-64 26 -143 0 -72 4 -100 20 -131 26 -51 26 -109 -1 -155 -18 -29 -20 -44 -14
-78 4 -23 7 -63 6 -89 -7 -227 -8 -210 22 -252 34 -49 34 -71 0 -121 -24 -34
-27 -48 -25 -95 7 -108 7 -197 -2 -325 l-9 -130 -43 -67 c-24 -37 -44 -73 -44
-81 0 -8 -7 -20 -16 -28 -8 -7 -26 -34 -40 -61 -13 -26 -45 -71 -71 -100 -66
-75 -138 -188 -153 -243 -9 -34 -22 -53 -45 -68 -22 -14 -108 -134 -257 -359
l-225 -338 8 -57 c4 -32 4 -62 0 -66 -5 -5 -23 -1 -41 8 -17 9 -33 15 -35 13
-1 -2 -165 -247 -363 -545 -286 -429 -366 -557 -384 -610 -20 -58 -27 -68 -46
-68 -15 0 -30 -11 -43 -32 l-21 -33 94 -1 c51 0 109 -2 128 -3 65 -4 99 29
104 98 0 14 4 22 8 18 4 -4 2 -29 -4 -55 -5 -27 -7 -51 -3 -55 3 -3 51 -8 105
-10 86 -4 100 -2 100 11 0 12 8 15 35 10 29 -5 41 -1 61 18 13 13 22 29 19 37
-3 9 1 12 13 8 10 -4 40 -2 68 3 47 9 50 8 81 -21 17 -17 36 -27 41 -24 17 10
61 -15 55 -31 -8 -21 463 -15 477 7 10 17 93 15 125 -3 11 -6 88 -14 172 -17
84 -3 157 -10 162 -15 7 -7 6 -28 -4 -65 -10 -38 -15 -108 -15 -227 0 -170 0
-172 30 -235 36 -75 38 -121 10 -210 -11 -34 -20 -85 -20 -113 0 -82 37 -222
85 -325 39 -84 45 -105 45 -162 0 -74 16 -125 122 -392 35 -87 67 -159 73
-160 9 -1 80 171 171 414 20 52 40 123 46 158 5 35 20 88 34 117 35 80 74 240
79 325 3 41 7 259 9 484 l3 408 169 3 c189 3 214 5 299 28 65 19 90 15 105
-14 10 -18 24 -19 232 -19 197 0 224 2 241 17 22 21 74 22 187 3 41 -7 120
-13 174 -14 l100 -1 20 62 c11 35 17 66 13 69 -4 4 -30 -3 -57 -16 l-51 -24
-27 27 c-26 27 -26 27 -4 27 23 0 30 14 12 25 -12 7 -1 30 29 62 18 19 25 21
51 11 25 -8 28 -13 19 -24 -18 -22 34 -18 58 3 18 17 162 442 196 578 8 33 54
181 101 328 48 148 86 270 84 272 -2 2 -40 -28 -85 -68 -44 -40 -155 -137
-246 -217 -157 -138 -164 -146 -150 -166 8 -13 11 -32 8 -47 -5 -17 -2 -26 9
-30 12 -5 16 0 16 22 0 20 7 31 25 39 36 16 40 15 59 -13 16 -24 16 -26 -1
-32 -10 -4 -38 -24 -62 -45 -70 -61 -130 -44 -119 33 4 22 1 29 -12 29 -9 0
-112 -83 -228 -185 l-211 -185 -163 0 c-90 0 -178 4 -197 10 -50 14 -81 47
-81 86 0 57 49 206 110 331 l58 122 70 -6 70 -6 16 31 c9 17 16 50 16 72 l0
41 27 -19 c38 -26 89 -42 134 -42 41 0 47 7 27 29 -11 10 -10 14 5 22 38 22
18 32 -53 25 -61 -6 -74 -4 -109 16 -37 21 -52 38 -33 38 4 0 45 -7 92 -15 91
-16 236 -20 244 -7 3 4 -38 14 -91 20 -52 7 -102 16 -110 21 -29 15 48 22 128
10 l76 -11 33 30 33 31 -39 -9 c-21 -5 -84 -9 -139 -9 -145 1 -175 17 -62 34
46 7 100 45 63 45 -13 0 -15 4 -6 19 19 36 10 45 -18 18 -28 -27 -49 -36 -37
-17 9 14 -5 12 -35 -5 -66 -38 -54 -3 54 154 103 150 171 204 270 213 38 3 40
1 49 -32 5 -19 14 -41 20 -49 24 -28 89 -62 145 -75 51 -11 58 -16 63 -42 5
-26 6 -27 12 -8 12 33 -2 53 -41 61 l-37 7 41 12 c79 23 84 28 84 92 0 36 -6
66 -16 80 -15 21 -14 22 14 22 24 0 62 25 62 41 0 2 -26 4 -57 4 -50 0 -58 3
-61 20 -2 11 -9 25 -14 30 -7 7 -8 3 -3 -12 7 -26 1 -27 -60 -13 -51 12 -98
-10 -132 -61 -21 -32 -31 -38 -73 -44 -67 -9 -159 -55 -196 -97 -17 -19 -57
-72 -89 -117 -32 -44 -60 -79 -63 -76 -2 2 3 26 13 52 25 72 30 210 11 327 -9
54 -14 101 -12 103 3 3 21 -8 42 -23 34 -26 45 -29 118 -29 l81 0 -2 69 c-2
56 -7 75 -28 102 -20 26 -22 34 -11 34 25 0 113 -36 140 -58 22 -16 23 -21 10
-26 -9 -3 -25 -6 -37 -6 -18 0 -19 -2 -7 -10 40 -26 80 -1 80 50 0 30 -70 93
-143 130 l-58 29 66 32 c36 18 80 49 97 68 33 38 94 158 85 168 -18 18 -291
-67 -359 -112 -21 -14 -41 -25 -45 -25 -5 0 -6 38 -5 84 4 92 -1 108 -77 220
-39 58 -40 59 -49 35 -5 -13 -26 -69 -47 -124 -32 -84 -38 -113 -38 -179 -1
-70 2 -80 23 -96 39 -30 3 -35 -49 -7 -67 37 -155 49 -271 37 -52 -6 -105 -13
-118 -16 l-23 -5 22 -30 c29 -41 130 -115 177 -129 20 -6 43 -13 49 -15 8 -3
4 -13 -13 -30 -28 -28 -54 -83 -54 -116 0 -19 5 -16 39 19 35 35 76 60 86 50
2 -1 -21 -43 -51 -93 -30 -49 -54 -94 -54 -98 0 -22 127 10 236 59 8 3 12 -11
12 -41 1 -27 12 -70 26 -101 22 -47 29 -54 53 -54 16 0 34 5 41 12 15 15 16
72 2 63 -6 -3 -10 -17 -10 -30 0 -39 -17 -38 -30 1 -15 43 -8 113 16 173 21
54 26 46 49 -92 24 -144 17 -254 -23 -362 -28 -78 -78 -181 -67 -139 6 23 -22
104 -35 104 -5 0 -11 -6 -13 -12 -4 -10 -6 -10 -6 0 -2 26 -20 10 -36 -32 -11
-28 -16 -64 -13 -100 3 -64 4 -64 -83 -45 -46 10 -63 22 -141 97 -48 46 -88
82 -88 78 0 -4 9 -25 20 -46 11 -22 16 -40 10 -40 -5 0 -10 3 -10 8 0 4 -10
13 -21 21 l-22 13 21 -29 c12 -17 28 -36 37 -43 9 -7 21 -22 26 -33 7 -12 -8
-5 -43 21 -50 38 -129 82 -145 82 -4 0 21 -29 57 -65 l64 -65 -32 -6 c-36 -7
-34 -24 4 -24 27 0 34 -20 7 -21 -10 0 5 -11 32 -25 38 -18 67 -24 122 -24 39
0 83 4 98 10 55 21 42 -43 -36 -180 -61 -107 -101 -204 -144 -348 -52 -176
-62 -182 -298 -182 l-164 0 -7 61 c-3 34 -6 105 -6 157 0 110 -26 243 -65 334
-5 13 3 26 27 48 l33 30 0 473 1 472 277 417 c178 267 280 430 284 451 3 23
14 39 33 50 16 10 41 38 56 65 15 26 40 63 55 82 15 19 30 46 34 60 4 14 17
34 30 45 35 30 454 666 449 680 -3 7 -15 17 -27 23 -22 10 -22 10 -2 17 11 5
28 15 37 23 22 18 7 42 -26 42 -18 0 -17 3 10 20 17 11 37 31 44 45 8 14 24
28 37 31 30 8 46 38 38 73 -5 23 -1 31 21 46 23 15 33 16 58 7 17 -7 33 -8 37
-4 27 29 390 586 394 604 5 19 -2 30 -36 57 -22 19 -48 49 -55 68 l-15 34
-245 -1 c-224 -1 -248 -3 -277 -21 -38 -22 -51 -24 -44 -5 8 21 -122 26 -701
26 -447 0 -523 2 -507 14 18 13 18 15 -3 64 -25 59 -31 197 -9 224 18 23 165
108 186 108 30 0 39 -20 46 -102 4 -43 12 -81 19 -86 6 -5 85 -25 176 -46 91
-21 195 -47 232 -57 69 -20 186 -38 246 -39 l32 0 -15 38 c-9 20 -33 54 -55
75 -41 39 -51 75 -30 107 6 10 -1 33 -27 80 -84 151 -190 280 -264 322 -20 11
-42 31 -48 44 -5 13 -30 37 -53 53 -24 17 -49 35 -55 41 -9 7 -13 39 -13 90 0
47 -4 80 -10 80 -5 0 -46 -36 -90 -80 -44 -44 -84 -80 -88 -80 -5 0 -17 -9
-27 -20 -20 -22 -46 -25 -77 -9 -16 9 -19 17 -14 43 3 18 3 46 0 63 -6 29 -9
31 -39 26 -26 -4 -43 1 -79 26 -25 18 -46 38 -46 45 0 8 -7 19 -15 26 -11 9
-15 33 -15 91 0 43 -5 99 -12 123 -10 38 -9 52 7 100 17 50 18 61 6 98 -8 24
-13 68 -13 98 2 51 2 137 1 235 -1 22 2 66 6 97 5 41 3 69 -8 103 -15 42 -15
50 0 86 12 30 14 59 10 111 -6 68 -5 73 22 103 16 19 31 50 35 74 4 27 18 55
41 80 19 21 35 44 35 52 0 7 -24 36 -53 63 -44 43 -60 68 -96 156 -24 58 -46
108 -50 112 -3 4 -26 2 -49 -4 -39 -10 -47 -8 -72 11 -44 32 -66 28 -80 -16z
m186 -548 c41 -27 57 -76 44 -142 -5 -31 -17 -64 -25 -73 -20 -22 -19 -33 5
-55 26 -23 25 -51 -1 -65 -29 -16 -68 -4 -81 24 l-10 24 -41 -29 c-23 -17 -50
-29 -62 -27 -28 4 -31 44 -6 78 20 28 20 28 0 46 -27 24 -22 68 9 72 12 2 36
-4 54 -12 28 -15 34 -15 55 0 13 8 27 21 29 29 7 16 -32 75 -48 75 -6 0 -26
-13 -45 -30 -38 -33 -51 -36 -78 -17 -19 15 -17 47 7 80 33 44 141 57 194 22z
m47 -400 c-1 -19 -13 -40 -32 -57 l-29 -26 24 -21 c15 -13 24 -32 24 -51 0
-27 -3 -30 -30 -30 -20 0 -39 9 -54 25 -13 14 -27 25 -32 25 -5 -1 -21 -17
-37 -37 l-27 -37 27 -28 c15 -15 30 -28 33 -28 4 0 24 14 45 30 43 34 57 37
79 15 20 -20 7 -57 -37 -107 -22 -25 -41 -38 -58 -38 -18 0 -36 -12 -58 -40
-35 -44 -34 -49 13 -93 19 -17 21 -16 57 19 49 48 83 45 87 -8 2 -28 -2 -40
-20 -52 -23 -16 -23 -17 -5 -47 9 -17 17 -44 17 -60 0 -25 -4 -29 -26 -29 -15
0 -38 12 -56 30 -16 17 -40 30 -53 30 -15 0 -38 15 -62 41 -48 51 -51 61 -52
131 -1 46 3 62 23 85 l24 28 -24 28 c-27 32 -30 68 -11 142 9 34 21 54 36 61
13 7 28 22 35 35 7 15 22 25 39 27 18 2 31 12 37 27 12 31 38 45 75 42 27 -2
30 -5 28 -32z m-155 -731 c9 -16 13 -16 57 0 76 25 87 23 83 -21 -4 -53 -42
-78 -120 -78 -53 0 -62 3 -84 28 -23 27 -31 66 -17 80 13 14 72 7 81 -9z m273
-206 c93 -35 104 -55 56 -99 -17 -16 -35 -29 -39 -29 -14 0 -78 -93 -78 -113
0 -33 70 -16 195 47 61 31 122 56 137 56 14 0 28 7 32 15 15 41 97 1 191 -94
38 -39 83 -75 100 -81 35 -11 110 -105 187 -232 44 -74 49 -87 43 -124 -4 -32
-1 -50 15 -76 22 -38 19 -64 -9 -73 -35 -11 -439 105 -465 133 -9 11 -28 59
-41 108 -25 91 -53 164 -64 164 -3 0 -19 -21 -35 -46 -33 -52 -89 -97 -144
-115 -33 -11 -37 -10 -59 16 -13 15 -27 25 -30 21 -10 -10 -20 -148 -16 -222
5 -85 -7 -104 -68 -104 -33 0 -40 -4 -45 -25 -9 -36 1 -53 33 -61 50 -10 53
-13 53 -42 0 -61 -12 -92 -36 -98 -32 -8 -30 -20 6 -39 33 -17 37 -29 43 -132
5 -84 29 -133 101 -203 l46 -44 0 -93 c0 -80 -3 -94 -20 -106 -27 -19 -39 -85
-40 -218 0 -101 -3 -120 -20 -142 -11 -14 -20 -30 -20 -35 0 -5 9 -12 20 -15
29 -7 29 -105 1 -129 -17 -14 -18 -21 -9 -45 10 -28 -2 -48 -251 -422 -219
-328 -265 -391 -277 -381 -11 10 -13 45 -10 198 l5 185 36 53 c20 29 42 55 50
58 7 2 28 26 46 53 18 26 57 74 86 107 30 32 52 60 50 63 -7 6 -134 -53 -188
-87 -51 -34 -74 -37 -83 -14 -11 27 -6 103 7 137 11 26 11 37 1 62 -9 21 -13
93 -14 246 0 204 -1 219 -25 287 -19 55 -25 92 -25 156 0 82 1 85 35 127 59
70 86 124 92 184 4 36 15 70 30 92 23 34 25 63 4 63 -22 0 -41 129 -23 157 4
6 21 13 37 15 28 3 30 7 33 46 3 41 2 42 -27 42 -16 0 -41 4 -55 10 l-26 10 0
135 c0 150 -6 175 -44 168 -13 -3 -48 0 -78 6 -48 10 -61 19 -102 66 -26 30
-51 55 -56 55 -18 0 -44 -65 -69 -174 l-26 -109 -40 -13 c-22 -7 -103 -26
-180 -44 -77 -17 -163 -38 -191 -46 -83 -23 -102 -20 -110 20 -8 48 35 127 82
149 33 16 34 18 34 75 0 48 5 67 29 103 46 69 182 202 270 264 43 30 82 62 85
70 3 9 18 15 37 15 24 0 46 -14 97 -60 46 -41 78 -62 102 -66 19 -3 60 -16 91
-30 31 -13 71 -27 88 -30 26 -6 31 -3 31 13 0 30 -52 105 -103 146 -36 29 -47
45 -47 67 0 30 14 40 61 40 16 0 46 8 67 17 24 12 73 20 137 23 149 8 220 1
306 -32z m1178 -1420 c-7 -13 -56 -102 -109 -198 -53 -96 -136 -247 -184 -336
-81 -152 -85 -163 -75 -193 11 -32 10 -34 -40 -80 -28 -26 -51 -55 -51 -63 0
-9 -8 -19 -17 -22 -10 -3 -53 -71 -96 -150 l-78 -144 15 -36 c16 -39 10 -49
-31 -51 -31 -1 -38 -10 -98 -117 l-52 -92 -121 -58 -122 -57 0 103 c0 56 -3
106 -7 110 -16 15 -1 82 26 116 16 19 31 45 35 58 4 12 18 28 31 35 14 7 48
41 77 77 253 312 395 493 420 538 17 29 45 64 64 78 52 40 244 283 244 309 0
16 11 30 34 43 19 11 58 50 87 86 56 70 67 80 48 44z m-749 -17 c0 -14 30 -23
96 -30 l61 -6 -69 -104 c-37 -57 -68 -112 -68 -122 0 -9 -25 -48 -56 -86 -31
-37 -99 -130 -151 -205 -52 -76 -98 -138 -102 -138 -5 0 -14 7 -21 14 -17 21
-10 377 8 398 13 16 36 224 26 239 -3 5 34 9 83 9 65 0 98 5 128 19 45 22 65
25 65 12z m-536 -1888 c16 -59 37 -188 34 -219 l-3 -37 -139 -54 c-76 -30
-141 -52 -143 -49 -6 5 -35 277 -31 281 11 11 237 95 255 95 12 0 24 -8 27
-17z m-506 -632 c20 -35 22 -53 22 -181 l0 -143 -165 -205 c-91 -113 -164
-213 -163 -221 2 -9 16 -22 31 -29 15 -7 27 -21 26 -30 0 -10 -3 -12 -6 -4 -2
6 -11 12 -18 12 -7 0 -16 -6 -18 -12 -3 -8 -6 -7 -6 4 -1 22 -40 34 -56 17
-22 -24 -285 -347 -474 -581 -167 -208 -217 -266 -179 -205 8 12 115 204 238
426 150 272 226 418 232 450 7 41 17 56 54 79 13 9 84 139 84 154 0 11 20 45
95 163 18 28 49 82 69 121 40 77 84 125 137 152 19 9 40 29 47 45 7 15 17 27
21 27 4 0 17 -17 29 -39z m640 -78 c5 -10 11 -173 13 -363 l4 -345 -75 1 c-57
1 -90 8 -140 28 -79 34 -114 43 -109 28 2 -5 61 -70 130 -144 89 -95 134 -152
154 -194 49 -102 44 -194 -10 -194 -16 0 -57 -27 -115 -76 -51 -42 -90 -78
-87 -80 2 -3 45 4 96 16 50 11 100 20 112 20 33 0 17 -23 -34 -48 -26 -12 -47
-26 -47 -31 0 -5 30 -37 66 -70 l67 -61 -2 -147 c-2 -127 -5 -152 -21 -179
-27 -43 -27 -124 0 -149 19 -17 20 -31 20 -393 l0 -375 -79 -106 c-85 -114
-101 -141 -101 -165 0 -28 17 -17 89 57 39 39 71 65 71 57 0 -8 -11 -53 -24
-100 -24 -88 -59 -164 -98 -212 -18 -23 -20 -31 -10 -53 20 -43 14 -68 -47
-219 -60 -149 -84 -196 -101 -196 -17 0 -41 47 -81 162 -43 125 -44 159 -4
213 43 58 42 72 -11 118 -127 110 -128 112 -153 253 -26 142 0 240 89 342 l40
45 -49 28 c-92 53 -92 52 -89 288 l3 205 31 21 c18 11 40 25 50 31 18 11 18
13 -4 40 -12 16 -35 50 -50 76 -27 45 -28 53 -31 195 -2 142 -1 151 24 206 30
65 29 101 -7 171 -21 42 -21 56 -2 269 6 66 8 68 58 113 73 66 73 69 24 104
-47 34 -80 79 -73 98 4 11 221 339 413 625 40 59 77 107 82 107 5 0 13 -8 18
-17z m-534 -815 c12 -35 1 -72 -35 -112 -29 -33 -30 -38 -23 -94 4 -42 2 -75
-10 -115 -23 -79 -21 -94 24 -167 22 -36 40 -75 40 -87 l0 -23 -221 0 c-173 0
-219 3 -213 13 5 6 27 42 51 79 54 84 55 98 6 98 -29 0 -34 3 -25 12 17 17 15
68 -2 68 -18 0 -29 17 -21 31 5 7 16 2 31 -12 24 -22 24 -22 39 -3 8 11 14 14
15 6 0 -24 29 -23 68 3 29 19 70 72 143 181 57 85 108 153 114 151 5 -2 14
-15 19 -29z"/>
<path d="M2663 7848 c-33 -38 -103 -141 -103 -152 0 -6 21 -45 45 -86 28 -46
45 -86 45 -106 0 -36 18 -94 30 -94 11 0 30 57 30 89 0 15 20 61 45 103 25 43
45 84 45 93 0 18 -98 175 -109 175 -4 0 -17 -10 -28 -22z"/>
<path d="M2655 6718 c-2 -13 -6 -41 -7 -63 l-3 -40 -102 -3 c-57 -1 -103 -5
-103 -8 0 -2 11 -22 25 -44 14 -22 25 -53 25 -69 0 -25 -4 -30 -36 -36 -25 -4
-33 -10 -26 -17 14 -14 112 0 119 18 3 8 -6 32 -21 54 -30 45 -33 65 -10 74
25 10 362 7 368 -3 3 -5 -8 -35 -24 -67 -20 -37 -27 -61 -21 -67 15 -15 107
-21 115 -8 5 7 -3 11 -21 11 -62 0 -68 39 -18 104 19 26 35 48 35 51 0 3 -51
5 -114 5 -129 0 -126 -2 -126 81 0 46 -2 49 -25 49 -17 0 -26 -7 -30 -22z"/>
<path d="M2550 6539 c0 -14 128 -179 139 -179 15 0 151 165 151 183 0 4 -65 7
-145 7 -99 0 -145 -3 -145 -11z m200 -47 c0 -4 -15 -23 -34 -41 l-34 -33 -19
29 c-38 54 -39 53 26 53 34 0 61 -4 61 -8z"/>
</g>
</svg>
